<?xml version="1.0" encoding="UTF-8" standalone="no"?>
<!-- Created with Inkscape (http://www.inkscape.org/) -->

<svg
   xmlns:dc="http://purl.org/dc/elements/1.1/"
   xmlns:cc="http://creativecommons.org/ns#"
   xmlns:rdf="http://www.w3.org/1999/02/22-rdf-syntax-ns#"
   xmlns:svg="http://www.w3.org/2000/svg"
   xmlns="http://www.w3.org/2000/svg"
   xmlns:sodipodi="http://sodipodi.sourceforge.net/DTD/sodipodi-0.dtd"
   xmlns:inkscape="http://www.inkscape.org/namespaces/inkscape"
   width="181"
   height="209"
   id="svg3105"
   version="1.1"
   inkscape:version="0.91 r13725"
   sodipodi:docname="nestpas.svg"
   inkscape:export-filename="/Users/stefan/Desktop/magrittr.png"
   inkscape:export-xdpi="90"
   inkscape:export-ydpi="90">
  <defs
     id="defs3107" />
  <sodipodi:namedview
     id="base"
     pagecolor="#ffffff"
     bordercolor="#666666"
     borderopacity="1.0"
     inkscape:pageopacity="0.0"
     inkscape:pageshadow="2"
     inkscape:zoom="2.0433423"
     inkscape:cx="88.702533"
     inkscape:cy="97.466488"
     inkscape:document-units="px"
     inkscape:current-layer="layer1"
     showgrid="false"
     inkscape:window-width="1366"
     inkscape:window-height="706"
     inkscape:window-x="-8"
     inkscape:window-y="-8"
     inkscape:window-maximized="1" />
  <metadata
     id="metadata3110">
    <rdf:RDF>
      <cc:Work
         rdf:about="">
        <dc:format>image/svg+xml</dc:format>
        <dc:type
           rdf:resource="http://purl.org/dc/dcmitype/StillImage" />
        <dc:title></dc:title>
      </cc:Work>
    </rdf:RDF>
  </metadata>
  <g
     inkscape:label="Layer 1"
     inkscape:groupmode="layer"
     id="layer1"
     transform="translate(0,-843.36215)">
    <path
       inkscape:connector-curvature="0"
       d="M 90.5,1052.3622 0,1000.112 0,895.61216 90.5,843.3622 180.99999,895.61215 181,1000.112 z"
       id="path4662-3-7-5-5"
       style="fill:#3e3221;fill-opacity:1;stroke:none" />
    <path
       inkscape:connector-curvature="0"
       d="m 90.5,1039.4015 -80.031691,-45.56205 0,-91.12382 L 90.5,857.15371 l 80.03163,45.56191 5e-5,91.12383 z"
       id="path4662-3-7-5-5-9"
       style="fill:#f9ecc6;fill-opacity:1;stroke:none" />
    <flowRoot
       xml:space="preserve"
       id="flowRoot3906"
       style="font-size:40px;font-style:normal;font-weight:normal;line-height:125%;letter-spacing:0px;word-spacing:0px;fill:#000000;fill-opacity:1;stroke:none;font-family:Sans"
       transform="matrix(1.0288839,0,0,1.0402392,-6.2736635,-42.445118)"><flowRegion
         id="flowRegion3908"><rect
           id="rect3910"
           width="129"
           height="117"
           x="96"
           y="151.36218" /></flowRegion><flowPara
         id="flowPara3912" /></flowRoot>    <path
       inkscape:connector-curvature="0"
       id="path4083"
       d="m 101.36978,1008.5098 c 0,-0.4191 0.25385,-1.2913 0.56413,-1.9384 0.31024,-0.647 1.22329,-3.7261 2.02895,-6.84243 0.80567,-3.1162 1.75452,-6.6637 2.10857,-7.8834 0.81079,-2.79288 0.80999,-2.80349 -0.17865,-2.42855 -1.23426,0.46832 -0.99857,-0.0952 0.73557,-1.76041 1.24839,-1.19837 2.00842,-1.47271 3.82488,-1.38026 1.24678,0.064 2.48856,0.31385 2.75946,0.55683 0.80832,0.72466 0.56648,3.01933 -0.74065,7.02729 -1.48853,4.5639 -1.59745,6.46493 -0.37036,6.46493 1.13098,0 3.65947,-3.69463 3.65947,-5.34733 0,-3.47938 4.06143,-9.56317 6.38468,-9.56317 0.36773,0 1.2477,0.84015 1.9555,1.86676 0.70787,1.0266 1.34804,1.60147 1.42255,1.27746 0.0746,-0.3242 0.39362,-1.09703 0.70965,-1.7177 0.43756,-0.85973 0.68984,-0.96316 1.05958,-0.43458 0.37235,0.53215 0.24873,1.444 -0.53187,3.91618 -1.45891,4.62255 -2.22399,9.25315 -1.66281,10.06698 1.23445,1.7906 5.0534,-3.30903 8.42242,-11.24744 1.14858,-2.70619 2.24838,-4.92037 2.44376,-4.92037 0.47066,0 0.44865,0.42302 -0.10011,1.90948 -0.36544,0.9903 -0.27786,1.69292 0.44231,3.55178 2.01274,5.19442 1.82749,7.63052 -0.82608,10.86915 -1.46001,1.7821 -2.65425,2.0118 -3.0322,0.5834 -0.64606,-2.44113 0.91726,-4.34223 1.76983,-2.15253 0.35099,0.9009 0.49418,0.7405 1.04845,-1.1737 0.35304,-1.2195 0.6421,-2.7226 0.6421,-3.3404 0,-1.493 -0.82733,-4.87943 -1.19178,-4.87943 -0.15919,0 -0.68325,1.14067 -1.16477,2.53473 -2.94481,8.52383 -7.67961,13.01383 -9.43403,8.94633 -0.38888,-0.9021 -0.7652,-1.75473 -0.83603,-1.89483 -0.0705,-0.1391 -0.65305,0.4737 -1.29378,1.36433 -0.64083,0.8904 -1.79525,1.7652 -2.56562,1.9438 -1.17869,0.2733 -1.58916,0.039 -2.5902,-1.4864 l -1.18975,-1.81113 -1.4739,1.76233 c -1.72982,2.068 -2.62648,2.204 -3.75357,0.5693 -1.1465,-1.66313 -1.03001,-3.72483 0.4788,-8.47273 1.4685,-4.62114 1.2848,-5.65675 -0.8008,-4.51479 -1.42667,0.78107 -1.80151,1.71585 -4.37029,10.89989 -2.40571,8.60093 -2.85868,9.82693 -3.63415,9.83423 -0.39576,0 -0.71958,-0.3362 -0.71958,-0.7552 z m 20.73434,-10.68023 c 1.60121,-2.7133 2.3513,-5.644 1.99099,-7.77796 -0.79569,-4.71152 -4.00689,-3.46359 -6.02563,2.34166 -0.79235,2.2795 -0.88845,7.1049 -0.14958,7.5371 1.56965,0.91873 2.75292,0.32463 4.18424,-2.1008 z m -49.414325,5.48453 c -0.734997,-0.6499 -1.336361,-1.467 -1.336361,-1.8156 0,-0.3483 -0.47525,-1.2724 -1.056115,-2.05343 -1.016104,-1.3658 -1.025976,-1.443 -0.259911,-2.0378 0.437906,-0.3399 0.905986,-1.3656 1.040162,-2.2793 0.388506,-2.6458 1.753521,-5.3607 3.573685,-7.10795 1.384406,-1.32877 1.882652,-1.51744 2.79153,-1.05688 0.853974,0.43292 1.136361,1.0127 1.237923,2.54151 0.111366,1.67517 -0.132065,2.33381 -1.578284,4.27032 -0.940417,1.2594 -2.333272,2.7187 -3.095195,3.2432 -1.728677,1.1899 -1.984698,1.7775 -1.429842,3.28133 1.71808,4.6564 5.647146,1.2697 10.370457,-8.93908 2.292415,-4.95487 3.03373,-5.82154 2.679373,-3.13262 -0.139501,1.05872 0.05373,2.1126 0.558038,3.04258 0.42432,0.78239 0.889476,2.33489 1.03366,3.44969 0.144169,1.1147 0.380364,2.0083 0.524816,1.9856 0.411034,-0.065 4.168852,-6.99547 4.168852,-7.68892 0,-0.34084 0.187334,-0.61976 0.416356,-0.61976 0.229006,0 0.866424,-1.47601 1.416514,-3.28023 0.634198,-2.07996 1.250415,-3.28024 1.684113,-3.28024 0.680408,0 0.659219,1.08677 -0.07537,3.86333 -0.225855,0.85369 -0.05419,0.93532 1.231806,0.58545 2.110021,-0.57424 1.869111,0.46046 -0.478626,2.05544 -1.844937,1.25322 -2.045038,1.61777 -3.085716,5.61873 -1.563908,6.0128 -1.809406,8.15533 -0.934541,8.15533 0.378722,0 1.234497,-0.4096 1.90172,-0.91 1.474146,-1.1058 1.574757,-0.3872 0.206765,1.4769 -1.117928,1.5234 -3.00489,1.8158 -3.557117,0.5514 -0.597379,-1.3681 -0.415887,-4.48663 0.445676,-7.65703 0.448973,-1.6522 0.680272,-2.9877 0.513964,-2.9679 -0.337513,0.04 -2.395424,3.716 -4.225277,7.54683 -2.213469,4.6335 -3.942533,5.2712 -5.145294,1.8974 -0.562532,-1.5778 -0.543764,-1.8007 0.248309,-2.94963 0.710459,-1.0305 0.964722,-1.1129 1.488311,-0.4826 0.560181,0.6742 0.533859,0.8749 -0.233097,1.77563 -1.00792,1.1838 -1.096426,1.719 -0.284353,1.719 0.319101,0 1.059245,-0.8259 1.644733,-1.835 1.313968,-2.26523 1.483464,-6.37663 0.325505,-7.89663 -0.695573,-0.91292 -0.864535,-0.72663 -2.875169,3.1706 -2.548683,4.93993 -5.874076,8.94763 -7.421908,8.94443 -0.601601,0 -1.695188,-0.534 -2.430155,-1.1841 z m 3.700626,-11.21993 c 0.621912,-0.84394 1.130751,-1.86892 1.130751,-2.27743 0,-0.9797 -1.463357,-1.62616 -2.244951,-0.99178 -0.945977,0.7679 -2.689238,4.44181 -2.689238,5.66751 0,1.0353 0.06967,1.0413 1.336334,0.1135 0.734997,-0.5379 1.845196,-1.6685 2.467104,-2.5125 z m -25.18493,10.81713 c 0,-0.546 0.658041,-3.00383 1.462318,-5.46153 1.457723,-4.4546 2.175432,-7.85983 1.656555,-7.85983 -0.324286,0 -3.027095,2.09304 -4.024318,3.11633 -1.271112,1.3044 -1.381638,-0.2114 -0.122476,-1.6801 1.875787,-2.18803 4.463755,-3.47313 5.450845,-2.70693 0.576319,0.44741 1.165984,0.43732 2.028526,-0.0349 3.274581,-1.79262 4.549154,1.43679 3.000939,7.60376 -0.48918,1.9486 -0.980661,3.9756 -1.092189,4.5044 -0.242862,1.1516 1.042989,2.0393 1.659221,1.1454 0.233573,-0.3386 0.711468,-0.6074 1.062011,-0.597 0.43839,0.018 0.269022,0.4886 -0.54261,1.5237 -1.530884,1.9526 -3.17852,1.7615 -3.706605,-0.4301 -0.292895,-1.2155 -0.131644,-2.4664 0.711993,-5.5232 1.734835,-6.28576 1.372414,-8.56541 -1.036476,-6.51931 -0.995938,0.846 -1.627038,2.28731 -2.827125,6.45681 -0.849708,2.9522 -1.649582,5.8375 -1.777496,6.4116 -0.300267,1.3478 -1.903067,1.3906 -1.903067,0.052 z m 16.394405,-11.15207 c 0.502038,-0.77522 0.858099,-1.7657 0.791245,-2.2012 -0.06693,-0.43547 0.202239,-0.89455 0.59799,-1.02003 1.117965,-0.35455 0.874848,1.50739 -0.411177,3.14935 -1.456097,1.85882 -2.169448,1.91132 -0.978058,0.0712 z"
       style="fill:#3e3221;fill-opacity:1"
       sodipodi:nodetypes="cccccccccssscscccccsccccccsscccccccccscsccccccccccsccccccccccccccsscsscccscsccccccccscccccccscsccccssccccscccccscsscccccccc" />
    <path
       inkscape:connector-curvature="0"
       id="path4083-1"
       d="m 106.02543,898.1773 c -9.091052,10.90867 -10.480866,14.93021 -10.995579,31.81054 -0.427738,14.02813 -2.016955,19.35378 -5.221037,17.49717 -0.756871,-0.43902 -1.148207,-9.04396 -0.86904,-19.12233 0.279168,-10.07825 -0.547363,-21.10285 -1.836438,-24.49837 -2.283281,-6.01436 -2.4897,-6.09712 -7.982548,-3.2108 -3.102431,1.62672 -6.640323,4.06635 -7.86418,5.41527 -3.223613,3.55391 -4.320109,-0.91217 -1.225202,-4.99059 4.622364,-6.09238 13.424886,-7.79491 19.383636,-3.74961 l 5.409494,3.67285 6.072774,-7.53756 c 2.34147,0.2669 6.62167,2.94829 5.12812,4.71343 z m -11.891599,66.96281 c 1.283899,3.38191 -1.677659,6.98883 -4.934574,6.00901 -1.601124,-0.48161 -1.994661,-1.6185 -1.391524,-4.02088 1.115796,-4.44654 4.937338,-5.64737 6.325664,-1.99042 z"
       style="fill:#3e3221;fill-opacity:1"
       sodipodi:nodetypes="cscsscccccccccccc" />
  </g>
</svg>
